<?xml version="1.0" encoding="UTF-8" standalone="no"?>
<svg
   xmlns:dc="http://purl.org/dc/elements/1.1/"
   xmlns:cc="http://creativecommons.org/ns#"
   xmlns:rdf="http://www.w3.org/1999/02/22-rdf-syntax-ns#"
   xmlns:svg="http://www.w3.org/2000/svg"
   xmlns="http://www.w3.org/2000/svg"
   xmlns:sodipodi="http://sodipodi.sourceforge.net/DTD/sodipodi-0.dtd"
   xmlns:inkscape="http://www.inkscape.org/namespaces/inkscape"
   sodipodi:docname="blue.svg"
   height="100%"
   width="100%"
   inkscape:version="1.0 (4035a4fb49, 2020-05-01)"
   version="1.1"
   id="svg3025"
   viewBox="0 -256 1792 1792">
  <metadata
     id="metadata3035">
    <rdf:RDF>
      <cc:Work
         rdf:about="">
        <dc:format>image/svg+xml</dc:format>
        <dc:type
           rdf:resource="http://purl.org/dc/dcmitype/StillImage" />
        <dc:title></dc:title>
      </cc:Work>
    </rdf:RDF>
  </metadata>
  <defs
     id="defs3033" />
  <sodipodi:namedview
     inkscape:document-rotation="0"
     inkscape:current-layer="svg3025"
     inkscape:window-maximized="1"
     inkscape:window-y="-8"
     inkscape:window-x="-8"
     inkscape:cy="896"
     inkscape:cx="896"
     inkscape:zoom="0.13169643"
     showgrid="false"
     id="namedview3031"
     inkscape:window-height="705"
     inkscape:window-width="1366"
     inkscape:pageshadow="2"
     inkscape:pageopacity="0"
     guidetolerance="10"
     gridtolerance="10"
     objecttolerance="10"
     borderopacity="1"
     bordercolor="#666666"
     pagecolor="#ffffff" />
  <g
     style="fill:#0000ff"
     id="g3027"
     transform="matrix(1,0,0,-1,364.47458,1270.2373)">
    <path
       style="fill:#0000ff"
       inkscape:connector-curvature="0"
       id="path3029"
       d="m 768,896 q 0,106 -75,181 -75,75 -181,75 -106,0 -181,-75 -75,-75 -75,-181 0,-106 75,-181 75,-75 181,-75 106,0 181,75 75,75 75,181 z m 256,0 q 0,-109 -33,-179 L 627,-57 q -16,-33 -47.5,-52 -31.5,-19 -67.5,-19 -36,0 -67.5,19 Q 413,-90 398,-57 L 33,717 Q 0,787 0,896 q 0,212 150,362 150,150 362,150 212,0 362,-150 150,-150 150,-362 z" />
  </g>
</svg>
